<?xml version="1.0" encoding="UTF-8"?>
<svg width="1663px" height="495px" viewBox="0 0 1663 495" version="1.1" xmlns="http://www.w3.org/2000/svg" xmlns:xlink="http://www.w3.org/1999/xlink">
    <title>Group</title>
    <g id="Page-1" stroke="none" stroke-width="1" fill="none" fill-rule="evenodd">
        <g id="Version-4_2" transform="translate(-116.000000, -86.000000)" fill="#FFFFFF">
            <g id="Group" transform="translate(116.082667, 86.798654)">
                <path d="M108.466348,494 C40.1989585,475.340416 4.07043653,430.934573 0.0807822923,360.782471 C-2.54037391,272.927274 59.495967,235.640911 59.495967,194.550954 C59.495967,184.245639 56.8627076,176.299184 51.5961887,170.711589 C78.1452326,173.096062 99.2099293,193.219879 114.790279,231.083039 C115.147483,230.62576 174.996359,125.725329 167.382084,0 C207.611509,22.6115936 235.898874,78.6853033 252.244178,168.221129 C256.581375,157.282483 262.68921,148.265084 270.567681,141.168934 C278.446152,134.072784 289.063261,127.194436 302.419009,120.533892 C296.600418,188.922595 333.408275,214.238389 333.408275,261.517897 C333.090324,289.470077 320.998705,309.745613 320.998705,309.745613 C339.61147,300.508597 350.581662,282.053438 353.90928,254.380135 C371.932204,280.056803 381.270787,313.792756 381.925029,355.587993 C382.906393,418.280848 342.49494,473.66958 268.371926,493.419498 C280.618014,481.400154 286.751857,466.528201 286.773456,448.80364 C286.773456,420.104144 267.365113,366.268494 267.365113,366.268494 C267.365113,366.268494 251.332401,423.424692 223.359712,420.104144 C200.307185,416.811182 215.940486,366.268494 216.948337,340.474717 C217.956189,314.68094 215.940486,263.255277 172.452017,242.394954 C188.922143,352.858593 93.7403988,395.25545 94.8111572,464.52537 C95.9994359,476.296382 100.551166,486.121258 108.466348,494 Z" id="Path"></path>
                <text id="PACRA" fill-rule="nonzero" font-family="HansonBold, Hanson" font-size="240" font-weight="bold" letter-spacing="15">
                    <tspan x="502.157333" y="348.201346">PACRA</tspan>
                </text>
            </g>
        </g>
    </g>
</svg>