<?xml version="1.0" encoding="UTF-8"?>
<svg width="1663px" height="495px" viewBox="0 0 1663 495" version="1.1" xmlns="http://www.w3.org/2000/svg" xmlns:xlink="http://www.w3.org/1999/xlink">
    <title>Group</title>
    <defs>
        <linearGradient x1="50%" y1="0%" x2="50%" y2="100%" id="linearGradient-1">
            <stop stop-color="#FF3500" offset="0%"></stop>
            <stop stop-color="#FFDB00" offset="100%"></stop>
        </linearGradient>
    </defs>
    <g id="Page-1" stroke="none" stroke-width="1" fill="none" fill-rule="evenodd">
        <g id="Version-4_3" transform="translate(-116.000000, -86.000000)">
            <g id="Group" transform="translate(116.082667, 86.798654)">
                <path d="M108.466348,494 C40.1989585,475.340416 4.07043653,430.934573 0.0807822923,360.782471 C-2.54037391,272.927274 59.495967,235.640911 59.495967,194.550954 C59.495967,184.245639 56.8627076,176.299184 51.5961887,170.711589 C78.1452326,173.096062 99.2099293,193.219879 114.790279,231.083039 C115.147483,230.62576 174.996359,125.725329 167.382084,0 C207.611509,22.6115936 235.898874,78.6853033 252.244178,168.221129 C256.581375,157.282483 262.68921,148.265084 270.567681,141.168934 C278.446152,134.072784 289.063261,127.194436 302.419009,120.533892 C296.600418,188.922595 333.408275,214.238389 333.408275,261.517897 C333.090324,289.470077 320.998705,309.745613 320.998705,309.745613 C339.61147,300.508597 350.581662,282.053438 353.90928,254.380135 C371.932204,280.056803 381.270787,313.792756 381.925029,355.587993 C382.906393,418.280848 342.49494,473.66958 268.371926,493.419498 C280.618014,481.400154 286.751857,466.528201 286.773456,448.80364 C286.773456,420.104144 267.365113,366.268494 267.365113,366.268494 C267.365113,366.268494 251.332401,423.424692 223.359712,420.104144 C200.307185,416.811182 215.940486,366.268494 216.948337,340.474717 C217.956189,314.68094 215.940486,263.255277 172.452017,242.394954 C188.922143,352.858593 93.7403988,395.25545 94.8111572,464.52537 C95.9994359,476.296382 100.551166,486.121258 108.466348,494 Z" id="Path" fill="url(#linearGradient-1)"></path>
                <path d="M564.557333,330.201346 L564.557333,296.121346 L628.877333,296.121346 C631.757333,296.121346 634.877333,295.921346 638.237333,295.521346 C641.597333,295.121346 645.637333,294.321346 650.357333,293.121346 C655.077333,291.921346 659.597333,290.321346 663.917333,288.321346 C668.237333,286.321346 672.637333,283.521346 677.117333,279.921346 C681.597333,276.321346 685.437333,272.161346 688.637333,267.441346 C691.837333,262.721346 694.437333,256.841346 696.437333,249.801346 C698.437333,242.761346 699.437333,234.961346 699.437333,226.401346 C699.437333,217.841346 698.357333,210.081346 696.197333,203.121346 C694.037333,196.161346 691.317333,190.481346 688.037333,186.081346 C684.757333,181.681346 680.717333,177.881346 675.917333,174.681346 C671.117333,171.481346 666.597333,169.041346 662.357333,167.361346 C658.117333,165.681346 653.397333,164.401346 648.197333,163.521346 C642.997333,162.641346 638.957333,162.121346 636.077333,161.961346 C633.197333,161.801346 630.157333,161.721346 626.957333,161.721346 L626.957333,161.721346 L508.637333,161.721346 L508.637333,330.201346 L564.557333,330.201346 Z M625.277333,246.441346 L564.557333,246.441346 L564.557333,211.161346 L624.317333,211.161346 C625.917333,211.161346 627.357333,211.241346 628.637333,211.401346 C629.917333,211.561346 631.557333,211.761346 633.557333,212.001346 C635.557333,212.241346 637.277333,212.761346 638.717333,213.561346 C640.157333,214.361346 641.597333,215.361346 643.037333,216.561346 C644.477333,217.761346 645.557333,219.321346 646.277333,221.241346 C646.997333,223.161346 647.357333,225.481346 647.357333,228.201346 C647.357333,240.361346 639.997333,246.441346 625.277333,246.441346 L625.277333,246.441346 Z M760.277333,330.201346 L772.997333,301.881346 L856.277333,301.881346 L868.997333,330.201346 L933.797333,330.201346 L858.197333,162.201346 L771.317333,162.201346 L695.957333,330.201346 L760.277333,330.201346 Z M836.357333,253.401346 L792.917333,253.401346 L814.517333,209.241346 L836.357333,253.401346 Z M1050.55733,330.921346 C1068.31733,330.921346 1083.91733,329.681346 1097.35733,327.201346 C1110.79733,324.721346 1121.71733,321.401346 1130.11733,317.241346 C1138.51733,313.081346 1145.35733,307.881346 1150.63733,301.641346 C1155.91733,295.401346 1159.59733,288.961346 1161.67733,282.321346 C1163.75733,275.681346 1164.79733,268.281346 1164.79733,260.121346 L1164.79733,260.121346 L1107.43733,260.121346 L1106.95733,262.521346 C1106.63733,264.121346 1105.39733,266.081346 1103.23733,268.401346 C1101.07733,270.721346 1098.15733,273.001346 1094.47733,275.241346 C1090.79733,277.481346 1084.95733,279.401346 1076.95733,281.001346 C1068.95733,282.601346 1059.51733,283.401346 1048.63733,283.401346 C1038.07733,283.401346 1029.11733,282.441346 1021.75733,280.521346 C1014.39733,278.601346 1008.71733,275.841346 1004.71733,272.241346 C1000.71733,268.641346 997.837333,264.681346 996.077333,260.361346 C994.317333,256.041346 993.437333,251.081346 993.437333,245.481346 C993.437333,241.481346 993.837333,237.841346 994.637333,234.561346 C995.437333,231.281346 996.997333,227.921346 999.317333,224.481346 C1001.63733,221.041346 1004.75733,218.201346 1008.67733,215.961346 C1012.59733,213.721346 1017.95733,211.881346 1024.75733,210.441346 C1031.55733,209.001346 1039.51733,208.281346 1048.63733,208.281346 C1058.87733,208.281346 1067.87733,209.281346 1075.63733,211.281346 C1083.39733,213.281346 1089.19733,215.521346 1093.03733,218.001346 C1096.87733,220.481346 1099.99733,223.281346 1102.39733,226.401346 C1104.79733,229.521346 1106.19733,231.721346 1106.59733,233.001346 C1106.99733,234.281346 1107.27733,235.321346 1107.43733,236.121346 L1107.43733,236.121346 L1164.79733,236.121346 C1164.79733,224.281346 1162.79733,213.881346 1158.79733,204.921346 C1154.79733,195.961346 1148.39733,188.081346 1139.59733,181.281346 C1130.79733,174.481346 1118.79733,169.281346 1103.59733,165.681346 C1088.39733,162.081346 1070.23733,160.281346 1049.11733,160.281346 C1030.23733,160.281346 1013.91733,161.801346 1000.15733,164.841346 C986.397333,167.881346 974.637333,172.801346 964.877333,179.601346 C955.117333,186.401346 947.797333,195.441346 942.917333,206.721346 C938.037333,218.001346 935.597333,231.561346 935.597333,247.401346 C935.597333,262.121346 937.517333,274.521346 941.357333,284.601346 C945.197333,294.681346 951.557333,303.281346 960.437333,310.401346 C969.317333,317.521346 981.117333,322.721346 995.837333,326.001346 C1010.55733,329.281346 1028.79733,330.921346 1050.55733,330.921346 Z M1248.67733,330.201346 L1248.67733,290.361346 L1299.31733,290.361346 L1328.11733,329.961346 L1392.67733,330.201346 L1358.11733,280.521346 C1378.75733,269.161346 1389.07733,250.201346 1389.07733,223.641346 C1389.07733,215.321346 1387.99733,207.881346 1385.83733,201.321346 C1383.67733,194.761346 1380.95733,189.361346 1377.67733,185.121346 C1374.39733,180.881346 1370.35733,177.201346 1365.55733,174.081346 C1360.75733,170.961346 1356.23733,168.641346 1351.99733,167.121346 C1347.75733,165.601346 1343.03733,164.401346 1337.83733,163.521346 C1332.63733,162.641346 1328.59733,162.121346 1325.71733,161.961346 C1322.83733,161.801346 1319.79733,161.721346 1316.59733,161.721346 L1316.59733,161.721346 L1192.75733,161.721346 L1192.75733,330.201346 L1248.67733,330.201346 Z M1311.31733,241.161346 L1248.67733,241.161346 L1248.67733,210.921346 L1310.35733,210.921346 C1324.91733,210.921346 1332.19733,215.721346 1332.19733,225.321346 C1332.19733,235.881346 1325.23733,241.161346 1311.31733,241.161346 L1311.31733,241.161346 Z M1467.43733,330.201346 L1480.15733,301.881346 L1563.43733,301.881346 L1576.15733,330.201346 L1640.95733,330.201346 L1565.35733,162.201346 L1478.47733,162.201346 L1403.11733,330.201346 L1467.43733,330.201346 Z M1543.51733,253.401346 L1500.07733,253.401346 L1521.67733,209.241346 L1543.51733,253.401346 Z" id="PACRA" fill="#000000" fill-rule="nonzero"></path>
            </g>
        </g>
    </g>
</svg>