<?xml version="1.0" standalone="no"?>
<!DOCTYPE svg PUBLIC "-//W3C//DTD SVG 20010904//EN"
 "http://www.w3.org/TR/2001/REC-SVG-20010904/DTD/svg10.dtd">
<svg version="1.0" xmlns="http://www.w3.org/2000/svg"
 width="990.000000pt" height="990.000000pt" viewBox="0 0 990.000000 990.000000"
 preserveAspectRatio="xMidYMid meet">
<metadata>
Created by potrace 1.14, written by Peter Selinger 2001-2017
</metadata>
<g transform="translate(0.000000,990.000000) scale(0.100000,-0.100000)"
fill="#000000" stroke="none">
<path d="M4475 9749 c2 -71 7 -134 10 -140 4 -5 2 -9 -4 -9 -6 0 -7 -11 -2
-27 4 -16 5 -39 4 -53 -2 -14 -3 -34 -3 -45 2 -25 2 -93 1 -120 -1 -11 -1 -38
0 -60 1 -71 -14 -371 -25 -500 -3 -33 -8 -89 -11 -125 -3 -36 -7 -74 -9 -85
-2 -11 -7 -51 -10 -90 -4 -38 -9 -77 -11 -85 -2 -8 -6 -40 -10 -70 -3 -30 -7
-66 -10 -80 -2 -14 -11 -68 -19 -120 -9 -52 -18 -105 -20 -116 -2 -12 -7 -37
-10 -55 -10 -58 -16 -93 -23 -124 -3 -16 -7 -39 -9 -50 -8 -48 -41 -200 -44
-200 -1 0 -4 -11 -5 -25 -2 -14 -18 -79 -35 -145 -16 -66 -32 -129 -34 -140
-8 -38 -34 -134 -60 -220 -10 -33 -19 -64 -20 -70 -7 -35 -123 -399 -141 -440
-7 -16 -16 -45 -20 -62 -3 -18 -11 -35 -16 -38 -5 -4 -9 -13 -9 -22 0 -9 -16
-57 -35 -107 -20 -50 -50 -127 -67 -171 -30 -80 -45 -115 -73 -179 -8 -19 -15
-37 -15 -40 0 -3 -13 -34 -29 -68 -15 -35 -41 -92 -57 -128 -15 -36 -32 -68
-37 -71 -5 -3 -8 -8 -7 -10 3 -9 -24 -70 -82 -184 -34 -66 -71 -139 -82 -162
-11 -24 -23 -43 -26 -43 -3 0 -14 19 -23 43 -72 176 -307 589 -361 632 -6 6
-25 28 -41 50 -37 49 -151 162 -213 212 -26 20 -51 42 -57 48 -5 5 -21 16 -35
23 -29 14 -63 35 -70 42 -5 6 -82 43 -150 73 -46 21 -156 54 -206 62 -96 15
-104 15 -98 0 4 -8 10 -15 15 -15 5 0 9 -7 9 -15 0 -8 4 -15 9 -15 10 0 54
-87 75 -150 23 -71 28 -107 32 -240 4 -138 -12 -234 -61 -368 -37 -103 -135
-303 -197 -402 -8 -14 -41 -68 -73 -120 -32 -52 -78 -125 -102 -162 -23 -37
-43 -72 -43 -78 0 -5 -4 -10 -8 -10 -5 0 -22 -25 -37 -55 -16 -30 -33 -55 -37
-55 -4 0 -7 -3 -6 -7 1 -5 -10 -27 -25 -51 -27 -41 -38 -61 -93 -158 -109
-194 -187 -354 -254 -519 -17 -44 -35 -89 -40 -100 -4 -11 -13 -33 -18 -50 -6
-16 -14 -39 -18 -50 -4 -11 -8 -23 -9 -27 -2 -5 -3 -9 -5 -10 -1 -2 -3 -10 -5
-18 -2 -8 -11 -40 -20 -70 -9 -30 -18 -63 -20 -73 -2 -9 -6 -21 -10 -26 -3 -5
-7 -22 -9 -38 -3 -15 -7 -38 -10 -51 -14 -51 -36 -167 -40 -202 -2 -14 -6 -43
-10 -65 -21 -128 -30 -257 -30 -450 -1 -233 8 -345 46 -565 6 -36 12 -74 13
-85 2 -11 4 -20 5 -20 1 0 3 -9 5 -20 5 -39 16 -88 20 -95 2 -4 7 -22 10 -41
3 -18 13 -56 22 -84 45 -149 68 -217 95 -285 30 -75 147 -321 157 -330 3 -3
15 -21 25 -40 30 -55 118 -185 127 -188 5 -2 9 -8 9 -13 0 -28 285 -336 370
-401 19 -14 44 -34 55 -44 57 -53 276 -204 295 -204 5 0 10 -4 10 -8 0 -4 30
-23 68 -42 37 -18 74 -39 82 -45 23 -17 225 -109 326 -148 110 -43 126 -49
139 -53 6 -1 30 -10 55 -19 66 -25 204 -65 208 -60 5 5 -40 65 -50 65 -4 0 -8
6 -8 14 0 8 -3 16 -7 18 -11 5 -53 66 -53 77 0 5 -3 11 -7 13 -21 9 -84 174
-110 288 -20 92 -19 196 4 360 3 25 7 54 9 65 1 11 3 20 4 20 2 0 7 21 15 60
3 17 9 39 12 50 4 11 8 22 8 25 1 3 4 12 8 20 3 8 13 40 23 70 9 30 21 61 27
68 5 6 6 12 3 12 -4 0 0 12 8 27 13 24 47 98 51 113 0 3 10 23 22 45 11 22 28
56 38 75 37 72 139 245 149 252 6 4 8 8 4 8 -5 0 41 76 70 115 29 39 523 787
538 815 11 19 22 37 25 40 3 3 14 21 24 40 10 19 21 37 24 40 7 5 8 8 71 125
81 149 88 165 83 165 -3 0 0 7 7 15 23 28 122 252 162 370 12 33 25 71 31 85
6 14 11 30 13 35 1 6 12 46 24 90 12 44 23 84 25 90 1 5 5 17 8 25 6 17 45
211 51 261 8 55 16 120 23 184 8 74 8 517 0 565 -4 19 -9 62 -12 95 -2 33 -7
70 -9 82 -3 13 -1 25 4 28 14 9 188 -95 238 -142 7 -7 17 -13 21 -13 4 0 43
-35 87 -77 135 -130 208 -227 296 -393 56 -103 141 -326 153 -400 2 -14 11
-51 20 -82 8 -31 15 -61 14 -65 -1 -4 0 -10 1 -13 6 -16 18 -87 25 -145 4 -27
8 -63 10 -80 2 -16 7 -79 11 -140 14 -214 6 -487 -21 -665 -3 -19 -7 -54 -9
-77 -3 -24 -7 -46 -10 -51 -3 -5 -6 -29 -7 -55 -2 -26 -5 -47 -8 -47 -3 0 -6
-15 -7 -33 0 -17 -4 -50 -7 -72 -4 -22 -9 -62 -12 -90 -4 -27 -8 -57 -10 -65
-2 -8 -7 -51 -10 -95 -3 -44 -8 -93 -10 -110 -5 -43 -6 -245 -1 -280 2 -16 7
-50 10 -74 4 -24 9 -48 12 -52 3 -5 7 -18 9 -29 12 -62 66 -134 130 -171 33
-20 54 -23 125 -23 47 0 94 2 105 5 33 10 79 28 95 39 8 6 23 13 33 16 9 4 17
10 17 15 0 5 6 9 14 9 14 0 146 127 186 180 51 67 98 138 131 196 49 88 150
295 155 319 1 6 11 33 21 60 23 57 30 77 32 87 1 4 10 28 21 53 11 25 20 47
20 50 0 3 0 13 0 22 0 33 18 -3 55 -111 21 -61 38 -115 40 -120 1 -6 5 -18 8
-26 9 -23 57 -184 58 -195 1 -5 6 -21 11 -35 5 -14 12 -34 14 -45 7 -27 10
-37 17 -55 6 -16 76 -281 83 -315 2 -11 6 -29 8 -40 2 -11 10 -40 17 -65 6
-25 13 -52 14 -60 1 -8 6 -35 10 -60 5 -25 10 -54 11 -65 2 -11 7 -40 13 -65
9 -44 16 -90 28 -200 15 -130 7 -339 -17 -446 -30 -134 -109 -334 -147 -372
-7 -7 -13 -19 -13 -27 0 -7 -4 -15 -8 -17 -5 -2 -22 -23 -40 -48 -17 -25 -52
-67 -77 -95 -42 -46 -61 -80 -32 -58 11 9 50 22 70 22 4 1 23 7 42 15 19 8 35
12 35 9 0 -3 7 0 15 7 8 7 15 9 15 5 0 -4 7 -1 17 6 9 8 18 13 19 12 8 -5 181
58 299 109 184 80 407 200 490 265 6 4 23 15 37 23 26 15 32 20 129 93 88 66
134 101 139 107 3 3 24 22 47 42 23 20 39 39 35 42 -3 3 0 6 5 6 14 0 130 115
198 194 28 33 55 64 60 70 41 45 154 206 232 331 15 24 117 218 118 225 0 3 8
21 17 40 29 60 52 115 53 125 1 6 7 21 12 35 12 28 44 120 47 135 2 6 8 30 15
55 7 25 15 56 18 69 2 14 6 28 8 31 2 4 7 22 10 41 3 19 10 50 15 69 4 19 12
60 15 90 4 30 9 63 10 72 11 58 19 171 19 285 1 73 5 133 9 133 5 0 5 5 2 10
-4 6 -8 63 -11 128 -5 152 -19 341 -29 393 -2 9 -6 40 -10 69 -4 29 -9 62 -11
74 -2 12 -7 46 -10 76 -3 30 -8 59 -11 63 -3 5 -8 25 -10 45 -4 29 -65 275
-87 352 -19 66 -84 248 -105 295 -28 61 -134 276 -153 311 -31 53 -91 148 -98
154 -4 3 -10 14 -13 24 -9 24 -17 17 -22 -20 -9 -52 -15 -89 -20 -114 -3 -14
-8 -38 -10 -55 -3 -16 -8 -38 -11 -47 -3 -9 -7 -27 -10 -40 -8 -38 -12 -53
-14 -55 -2 -2 -3 -6 -4 -10 -1 -5 -5 -14 -10 -21 -4 -7 -5 -16 -2 -19 3 -3 2
-11 -3 -17 -4 -6 -16 -36 -27 -66 -10 -30 -23 -62 -29 -70 -7 -8 -18 -31 -25
-50 -7 -19 -22 -47 -32 -62 -10 -14 -18 -31 -18 -37 0 -6 -4 -11 -9 -11 -5 0
-14 -13 -21 -30 -7 -16 -15 -30 -19 -30 -4 0 -14 -12 -23 -27 -39 -67 -202
-213 -293 -263 -22 -12 -46 -27 -52 -32 -20 -16 -16 -3 23 80 19 42 40 86 45
97 11 25 70 195 74 215 2 8 12 51 23 95 45 175 57 283 55 485 -1 162 -5 220
-19 290 -4 19 -8 42 -10 50 -6 36 -27 126 -32 140 -3 8 -6 22 -8 31 -10 48
-98 295 -147 409 -6 14 -11 27 -12 30 0 3 -11 27 -23 54 -12 27 -22 54 -22 60
0 7 -4 16 -9 21 -10 12 -128 307 -166 416 -28 78 -52 158 -61 198 -3 14 -8 29
-12 35 -4 6 -7 19 -8 29 -1 9 -2 18 -4 20 -1 1 -3 9 -5 17 -2 8 -8 35 -14 60
-7 25 -14 59 -16 75 -3 17 -9 53 -15 80 -5 28 -12 70 -14 95 -3 25 -8 63 -11
85 -3 22 -7 65 -9 96 -1 30 -6 60 -10 67 -4 7 -3 12 3 12 6 0 8 6 5 13 -8 23
-10 141 -2 165 4 12 3 22 -2 22 -5 0 -7 10 -4 23 6 33 13 207 8 207 -5 0 -41
-20 -184 -99 -93 -52 -107 -60 -147 -88 -17 -13 -36 -23 -42 -23 -6 0 -11 -4
-11 -9 0 -5 -8 -12 -18 -15 -10 -4 -27 -14 -38 -24 -11 -9 -36 -28 -56 -42
-80 -56 -278 -241 -278 -260 0 -4 -9 -18 -21 -31 -19 -22 -51 -68 -86 -124
-15 -24 -66 -118 -68 -125 -6 -20 -47 -101 -51 -98 -2 2 -6 22 -9 44 -7 44
-44 230 -76 374 -11 52 -22 104 -24 115 -7 42 -100 404 -124 483 -5 18 -10 34
-11 37 0 3 -2 10 -5 17 -2 7 -10 33 -16 58 -15 52 -14 50 -21 70 -5 13 -26 84
-34 115 -2 8 -74 213 -109 310 -69 193 -316 726 -355 765 -3 3 -14 21 -24 40
-27 49 -147 232 -162 247 -7 7 -22 28 -34 48 -12 19 -26 35 -31 35 -6 0 -8 4
-5 9 4 5 3 11 -1 13 -5 1 -33 32 -63 68 -30 36 -81 93 -115 128 -33 35 -61 67
-63 73 -2 5 -8 9 -13 9 -6 0 -20 11 -32 23 -54 58 -338 267 -362 267 -2 0 -2
-59 0 -131z"/>
</g>
</svg>
